<?xml version="1.0" encoding="UTF-8"?>
<svg width="157px" height="107px" viewBox="0 0 157 107" version="1.1" xmlns="http://www.w3.org/2000/svg" xmlns:xlink="http://www.w3.org/1999/xlink">
    <!-- Generator: Sketch 62 (91390) - https://sketch.com -->
    <title>Group 6</title>
    <desc>Created with Sketch.</desc>
    <defs>
        <polygon id="path-1" points="0.000236203091 0.198646799 156.938294 0.198646799 156.938294 96.543053 0.000236203091 96.543053"></polygon>
    </defs>
    <g id="Design-2-01-20" stroke="none" stroke-width="1" fill="none" fill-rule="evenodd">
        <g id="News-A" transform="translate(-263.000000, -14.000000)">
            <g id="Nav-Bar" transform="translate(254.000000, -20.000000)">
                <g id="Group-6" transform="translate(9.000000, 34.000000)">
                    <g id="Group-5">
                        <mask id="mask-2" fill="white">
                            <use xlink:href="#path-1"></use>
                        </mask>
                        <g id="Clip-2"></g>
                        <path d="M134.149892,77.162117 C136.443896,78.5802804 137.981342,81.1088344 137.981342,83.998543 C137.981342,88.4320751 134.374757,92.0384238 129.940753,92.0384238 L108.573113,92.0384238 C96.6696578,92.0384238 86.9867483,82.3555143 86.9867483,70.4520596 C86.9867483,58.6808786 96.4613267,49.0870177 108.18385,48.8779779 C98.9478366,45.3325695 92.2240795,37.1837991 91.4276026,27.4205806 L91.3971325,24.0624812 C91.4115408,23.7766755 91.4346887,23.4885077 91.4625607,23.1977417 C92.7349868,10.2358609 104.232408,0.353596026 118.207128,0.203134658 L118.300664,0.200772627 L138.577046,0.198410596 C142.527779,0.198410596 145.74085,3.31298455 145.74085,7.14041943 C145.74085,9.68267329 144.325285,11.9093598 142.215991,13.1184834 C144.079397,16.2075475 145.229943,19.6336733 145.581413,23.1906556 C145.611883,23.4811854 145.635267,23.7719514 145.652038,24.0624812 C145.682272,24.5381943 145.69857,25.0162693 145.69857,25.4900927 C145.69857,25.9754901 145.682272,26.4575806 145.6544,26.9377815 C145.644715,27.0995806 145.632669,27.2613797 145.619205,27.4205806 C145.270097,31.7053046 143.786506,35.751936 141.288185,39.2999426 C147.647954,42.9143223 151.61404,49.4847837 151.61404,56.7593664 C151.61404,67.0637263 144.027196,75.6293951 134.149892,77.162117" id="Fill-1" fill="#FFFFFE" mask="url(#mask-2)"></path>
                        <path d="M91.4276026,27.421053 C91.4155563,27.2616159 91.4042185,27.102415 91.3947704,26.9429779 C91.3666623,26.4578168 91.3498918,25.9750177 91.3498918,25.4896203 C91.3498918,25.0235916 91.3643002,24.5457528 91.3971325,24.0627174 L91.4276026,27.421053" id="Fill-3" fill="#000203" mask="url(#mask-2)"></path>
                        <path d="M156.867905,29.6097108 C156.867905,28.0517152 156.223307,26.6432362 155.189446,25.6422075 C154.706647,25.1643687 154.142358,24.7824283 153.512168,24.5124481 C152.839461,24.2242804 152.101327,24.0624812 151.323038,24.0624812 L145.651565,24.0624812 C145.682035,24.5381943 145.699042,25.0162693 145.699042,25.4900927 C145.699042,25.9754901 145.682035,26.4575806 145.653927,26.9377815 C145.644479,27.0995806 145.633141,27.2613797 145.618733,27.4205806 L151.323038,27.4205806 C152.531925,27.4205806 153.512168,28.4008234 153.512168,29.6097108 L153.580194,61.8710375 C153.580194,69.1031038 151.391064,74.2003664 145.998311,75.8705585 C145.293009,76.0866843 144.817296,76.73766 144.817296,77.4760309 L144.817296,84.0143687 C144.817296,90.4402737 141.192287,93.1873157 132.706691,93.1873157 L5.54510375,93.1873157 C4.34235762,93.1873157 3.35597351,92.2023488 3.35597351,90.9984216 L3.35597351,29.6097108 C3.35597351,28.4008234 4.33527152,27.4205806 5.54510375,27.4205806 L91.4278389,27.4205806 L91.3973687,24.0624812 L5.54510375,24.0624812 C2.48154967,24.0624812 0.000236203091,26.5471015 0.000236203091,29.6097108 L0.000236203091,90.9984216 C0.000236203091,94.0537086 2.4839117,96.543053 5.54510375,96.543053 L132.706691,96.543053 C138.0026,96.543053 141.951444,95.4229779 144.528892,93.1873157 C146.952808,91.1063664 148.175395,88.0357263 148.175395,84.0143687 L148.175395,78.6570464 C150.020141,77.8978896 152.506415,76.446894 154.486742,73.7213466 C156.392192,71.1183885 156.93853,67.3381943 156.93853,61.8710375 L156.867905,29.6097108" id="Fill-4" fill="#74B943" mask="url(#mask-2)"></path>
                    </g>
                    <path d="M153.579958,61.8705651 C153.579958,69.1026313 151.390592,74.199894 145.998784,75.8710309 C145.293481,76.0864481 144.817768,76.7381325 144.817768,77.4765033 L144.817768,84.0141325 C144.817768,90.4405099 141.192051,93.1868433 132.706455,93.1868433 L5.54463135,93.1868433 C4.34283002,93.1868433 3.3555011,92.2028212 3.3555011,90.9979492 L3.3555011,29.6094746 C3.3555011,28.400351 4.33574393,27.421053 5.54463135,27.421053 L91.4276026,27.421053 C92.2243157,37.1840353 98.9478366,45.3320971 108.18385,48.8784503 C96.4615629,49.0865453 86.9867483,58.681351 86.9867483,70.452532 C86.9867483,82.3550419 96.6696578,92.03866 108.573113,92.03866 L129.940753,92.03866 C134.374993,92.03866 137.981342,88.4325475 137.981342,83.9980706 C137.981342,81.108362 136.443896,78.5798079 134.149892,77.1625894 C144.027433,75.6291589 151.613331,67.0639625 151.613331,56.7598389 C151.613331,49.4852561 147.64819,42.9140861 141.288422,39.300415 C143.786506,35.7524084 145.270097,31.7048322 145.619442,27.421053 L151.322565,27.421053 C152.532397,27.421053 153.511932,28.400351 153.511932,29.6094746 L153.579958,61.8705651" id="Fill-6" fill="#FFFFFE"></path>
                    <path d="M129.52787,79.497457 L108.30266,79.497457 C103.491203,79.497457 99.5773179,75.5821545 99.5773179,70.7697528 C99.5773179,65.9592406 103.491203,62.0446468 108.30266,62.0446468 L129.52787,62.0446468 C132.134135,62.0446468 134.255002,59.9242517 134.255002,57.3179868 C134.255002,54.7117219 132.134135,52.5915629 129.52787,52.5915629 L108.30266,52.5915629 C98.2786733,52.5915629 90.1232892,60.7460022 90.1232892,70.7697528 C90.1232892,80.7949205 98.2786733,88.9514857 108.30266,88.9514857 L129.52787,88.9514857 C132.134135,88.9514857 134.255002,86.8303819 134.255002,84.224117 C134.255002,81.6178521 132.134135,79.497457 129.52787,79.497457" id="Fill-7" fill="#2D2153"></path>
                    <path d="M137.155104,40.6701567 C140.831132,36.5843157 142.848071,31.4421744 142.848071,26.1205188 C142.848071,21.2058411 141.103238,16.3910773 137.917331,12.4637285 L138.100861,12.4637285 C140.741375,12.4637285 142.889642,10.4156115 142.889642,7.89745033 C142.889642,5.37834437 140.741375,3.33022737 138.100861,3.33022737 L118.038951,3.33022737 L117.896521,3.33329801 C104.459163,3.4773819 93.5272119,13.7000155 93.5272119,26.1205188 C93.5272119,38.6877042 104.589784,48.9119912 118.187287,48.9119912 C118.696305,48.9119912 130.481185,48.8765607 130.545196,48.8758521 C135.356653,48.8758521 139.270539,52.3605563 139.270539,57.1727219 C139.270539,61.9841788 135.356653,65.898064 130.545196,65.898064 L108.889389,65.898064 C106.282887,65.898064 104.162728,68.018223 104.162728,70.6244879 C104.162728,73.2316976 106.282887,75.3520927 108.889389,75.3520927 L130.545196,75.3520927 C140.569419,75.3520927 148.724331,67.1967086 148.724331,57.1727219 C148.724331,49.6846115 144.101128,43.3909801 137.155104,40.6701567 M133.523954,26.1942141 C133.523954,33.6520905 126.630603,39.7199117 118.157525,39.7199117 C109.684448,39.7199117 102.791097,33.6520905 102.791097,26.1942141 C102.791097,18.7372826 109.684448,12.6696976 118.157525,12.6696976 C126.630603,12.6696976 133.523954,18.7372826 133.523954,26.1942141" id="Fill-8" fill="#2D2153"></path>
                    <path d="M7.80273289,15.2535232 C7.80273289,14.6667947 7.91327594,14.0814834 8.13341722,13.4985342 C8.35284989,12.9165298 8.67384989,12.3959382 9.09665342,11.9372318 C9.51851214,11.4782892 10.0327263,11.1060331 10.6381148,10.8216446 C11.2432671,10.5374923 11.9320353,10.3950618 12.7020574,10.3950618 C13.6199426,10.3950618 14.4157108,10.5927638 15.0898344,10.9874592 C15.7649029,11.3814459 16.2670706,11.8954238 16.597755,12.5289205 L14.8633157,13.7394614 C14.7527726,13.483181 14.6134128,13.2696534 14.443819,13.0998234 C14.2732804,12.9299934 14.0873885,12.792287 13.8856711,12.686468 C13.6839536,12.58183 13.4772759,12.5081347 13.266819,12.4663267 C13.0554172,12.4254636 12.8487395,12.4049139 12.6470221,12.4049139 C12.2161876,12.4049139 11.8399161,12.4920728 11.5186799,12.6656821 C11.1976799,12.8402362 10.9319514,13.0653377 10.7205497,13.3407506 C10.5091479,13.6161634 10.3537263,13.9277152 10.2528675,14.2768234 C10.1513002,14.6249868 10.1014614,14.9783466 10.1014614,15.3361943 C10.1014614,15.7214415 10.1607483,16.0927528 10.2800309,16.4515453 C10.3993135,16.8084481 10.5715055,17.1256689 10.7966071,17.4010817 C11.0207638,17.6757859 11.2914525,17.8945099 11.6084371,18.0544194 C11.924713,18.2148013 12.2801987,18.2955828 12.674894,18.2955828 C12.8768477,18.2955828 13.0858874,18.2700728 13.3010684,18.2195254 C13.5164857,18.1689779 13.7231634,18.0912671 13.9208653,17.9856843 C14.1178587,17.8801015 14.2987903,17.7431038 14.4638962,17.5725651 C14.6294746,17.4036799 14.762457,17.1946402 14.8633157,16.9463907 L16.7073532,18.0338698 C16.5606711,18.3917174 16.3428918,18.7127174 16.0540155,18.9968698 C15.7649029,19.2819669 15.4318565,19.5198234 15.055585,19.7128013 C14.6800221,19.9057792 14.2803664,20.0524614 13.8585077,20.1530839 C13.4364128,20.2541788 13.0232936,20.3044901 12.6196225,20.3044901 C11.9136115,20.3044901 11.2642892,20.1604062 10.6723642,19.8712936 C10.0806755,19.582181 9.57142163,19.1988234 9.14460265,18.7224018 C8.71801987,18.2450353 8.38709934,17.703894 8.15349448,17.0977969 C7.91965342,16.4924084 7.80273289,15.8773355 7.80273289,15.2535232" id="Fill-9" fill="#2D2153"></path>
                    <polyline id="Fill-10" fill="#2D2153" points="25.2541258 18.2403113 25.2541258 20.2220552 18.386521 20.2220552 18.386521 10.4503333 25.1301192 10.4503333 25.1301192 12.4320773 20.6436777 12.4320773 20.6436777 14.3311501 24.4973311 14.3311501 24.4973311 16.1624327 20.6436777 16.1624327 20.6436777 18.2403113 25.2541258 18.2403113"></polyline>
                    <path d="M27.4564834,20.2222914 L27.4564834,10.4503333 L31.8602539,10.4503333 C32.3191965,10.4503333 32.7436534,10.546468 33.1333885,10.7394459 C33.5233598,10.9317152 33.8606578,11.1846887 34.1455188,11.4960044 C34.4299073,11.8085011 34.6524106,12.1616247 34.8132649,12.5563201 C34.9736468,12.9510155 35.0534834,13.3497263 35.0534834,13.7533974 C35.0534834,14.0559735 35.016872,14.3474481 34.9438852,14.627585 C34.8701898,14.9079581 34.7646071,15.1713245 34.6269007,15.4188653 C34.4899029,15.6671148 34.3217263,15.8896181 34.1247329,16.0866115 C33.9277395,16.2836049 33.7052362,16.4508366 33.4569868,16.588543 L35.6045453,20.2222914 L33.0582759,20.2222914 L31.1861302,17.0706336 L29.7136402,17.0706336 L29.7136402,20.2222914 L27.4564834,20.2222914 Z M29.7136402,15.1023532 L31.777819,15.1023532 C32.0437837,15.1023532 32.2736093,14.9759845 32.4665872,14.7237196 C32.6586203,14.4716909 32.7554636,14.1480927 32.7554636,13.7533974 C32.7554636,13.3497263 32.6451567,13.0287263 32.4247792,12.7899249 C32.204638,12.551596 31.9660728,12.4320773 31.7090839,12.4320773 L29.7136402,12.4320773 L29.7136402,15.1023532 L29.7136402,15.1023532 Z" id="Fill-11" fill="#2D2153"></path>
                    <polyline id="Fill-12" fill="#2D2153" points="44.5223929 12.4323135 41.5495408 12.4323135 41.5495408 20.2222914 39.2923841 20.2222914 39.2923841 12.4323135 36.305596 12.4323135 36.305596 10.4505695 44.5223929 10.4505695 44.5223929 12.4323135"></polyline>
                    <polygon id="Fill-13" fill="#2D2153" points="46.449574 20.221819 48.7069669 20.221819 48.7069669 10.4500971 46.449574 10.4500971"></polygon>
                    <polyline id="Fill-14" fill="#2D2153" points="51.4039338 20.2222914 51.4039338 10.4503333 58.0376976 10.4503333 58.0376976 12.4320773 53.6610905 12.4320773 53.6610905 14.538064 57.2674393 14.538064 57.2674393 16.3684018 53.6610905 16.3684018 53.6610905 20.2222914 51.4039338 20.2222914"></polyline>
                    <polygon id="Fill-15" fill="#2D2153" points="60.060777 20.221819 62.31817 20.221819 62.31817 10.4500971 60.060777 10.4500971"></polygon>
                    <polyline id="Fill-16" fill="#2D2153" points="71.6080375 18.2403113 71.6080375 20.2220552 64.7401965 20.2220552 64.7401965 10.4503333 71.4837947 10.4503333 71.4837947 12.4320773 66.9975894 12.4320773 66.9975894 14.3311501 70.8512428 14.3311501 70.8512428 16.1624327 66.9975894 16.1624327 66.9975894 18.2403113 71.6080375 18.2403113"></polyline>
                    <path d="M73.8099227,20.2222914 L73.8099227,10.4503333 L77.4571347,10.4503333 C78.2642406,10.4503333 78.9714327,10.5785916 79.576585,10.8355806 C80.1819735,11.0925695 80.6898102,11.4416777 81.0972605,11.8812517 C81.5056556,12.322479 81.8131921,12.8381104 82.0196336,13.4297991 C82.2263113,14.0214879 82.329532,14.6526225 82.329532,15.3227307 C82.329532,16.0655894 82.2149735,16.7375872 81.9851479,17.3389603 C81.7562671,17.9403333 81.4279448,18.4533664 81.0011258,18.8801854 C80.574543,19.3070044 80.0603289,19.6376887 79.4599007,19.8715298 C78.8585276,20.1053709 78.1914901,20.2222914 77.4571347,20.2222914 L73.8099227,20.2222914 Z M80.0308035,15.3227307 C80.0308035,14.8911876 79.9738786,14.4988543 79.8583753,14.1457307 C79.744053,13.7926071 79.576585,13.4874327 79.3564437,13.2304437 C79.1363024,12.9734547 78.8656137,12.7764614 78.5446137,12.638755 C78.2236137,12.5010486 77.8608057,12.4320773 77.4571347,12.4320773 L76.0673157,12.4320773 L76.0673157,18.2405475 L77.4571347,18.2405475 C77.8702539,18.2405475 78.2370773,18.1666159 78.5580773,18.02017 C78.8793135,17.8737241 79.1476402,17.6686998 79.363766,17.4076954 C79.5791832,17.1459823 79.744053,16.8391545 79.8583753,16.4853223 C79.9738786,16.1321987 80.0308035,15.7445894 80.0308035,15.3227307 L80.0308035,15.3227307 Z" id="Fill-17" fill="#2D2153"></path>
                    <path d="M12.7188278,106.276982 C12.2055585,106.752695 11.6122163,106.990552 10.9406909,106.990552 C10.4968653,106.990552 10.0780773,106.906464 9.68503532,106.738523 C9.29199338,106.570347 8.94831788,106.334143 8.65377263,106.029914 C8.35828256,105.725448 8.12538631,105.35957 7.95461148,104.931097 C7.78336424,104.503806 7.69762252,104.032581 7.69762252,103.519547 C7.69762252,103.056826 7.78336424,102.618669 7.95461148,102.207203 C8.12538631,101.794792 8.3615894,101.436945 8.66251214,101.132715 C8.96343488,100.828486 9.32081015,100.586614 9.73227594,100.409698 C10.1446865,100.231837 10.5882759,100.143024 11.0637528,100.143024 C11.6915806,100.143024 12.2400442,100.275062 12.7093797,100.53772 C13.178479,100.801086 13.5299492,101.160587 13.7647351,101.617168 L12.6042693,102.4923 C12.4521545,102.188071 12.2320132,101.951868 11.9438455,101.783691 C11.6547329,101.615514 11.343181,101.531426 11.007064,101.531426 C10.7467682,101.531426 10.5105651,101.584099 10.2984547,101.688501 C10.0861082,101.793139 9.90352318,101.938876 9.75140839,102.126185 C9.5992936,102.312786 9.48166446,102.529857 9.39993819,102.777397 C9.31750331,103.024702 9.27593157,103.290667 9.27593157,103.576472 C9.27593157,103.867711 9.32081015,104.137691 9.40938631,104.384287 C9.49772627,104.631828 9.62173289,104.845592 9.78022517,105.026287 C9.93871744,105.207455 10.1269713,105.348468 10.346404,105.450035 C10.565128,105.550894 10.8077086,105.60215 11.0734371,105.60215 C11.6818962,105.60215 12.2303598,105.319651 12.7188278,104.755834 L12.7188278,104.546086 L11.4064834,104.546086 L11.4064834,103.414673 L14.0120397,103.414673 L14.0120397,106.942603 L12.7188278,106.942603 L12.7188278,106.276982" id="Fill-18" fill="#2D2153"></path>
                    <polyline id="Fill-19" fill="#2D2153" points="15.6097174 100.190737 15.6097174 106.943075 17.1703113 106.943075 17.1703113 104.279649 19.6613091 104.279649 19.6613091 103.01549 17.1703113 103.01549 17.1703113 101.55977 20.1937108 101.55977 20.1937108 100.190737 15.6097174 100.190737"></polyline>
                    <path d="M20.8593311,103.509863 C20.8593311,103.10383 20.9353885,102.700159 21.0875033,102.297433 C21.2396181,101.894706 21.4614128,101.535205 21.753596,101.217985 C22.044362,100.901 22.3998477,100.644011 22.8186358,100.447962 C23.236479,100.250969 23.7121921,100.152472 24.2445938,100.152472 C24.8787991,100.152472 25.4289161,100.289234 25.8947086,100.561576 C26.3609735,100.834391 26.7084283,101.189168 26.9358918,101.62638 L25.7378698,102.463956 C25.6618124,102.286331 25.5649691,102.13894 25.4480486,102.021311 C25.3304194,101.904391 25.2021611,101.808965 25.0630375,101.736214 C24.9227329,101.663227 24.7803024,101.61268 24.6345651,101.583863 C24.4888278,101.555046 24.3463974,101.541583 24.2070375,101.541583 C23.9082406,101.541583 23.6488896,101.601578 23.4270949,101.72157 C23.2053002,101.842742 23.021298,101.997927 22.8753245,102.187834 C22.7298234,102.37845 22.6216424,102.593868 22.5519625,102.834558 C22.4822826,103.075722 22.4477969,103.319956 22.4477969,103.566552 C22.4477969,103.833225 22.48866,104.090214 22.5710949,104.337046 C22.6535298,104.584115 22.7721038,104.802839 22.9272892,104.993455 C23.0827108,105.183362 23.2702561,105.333587 23.4887439,105.445075 C23.707468,105.556327 23.9531192,105.611598 24.2254614,105.611598 C24.3655298,105.611598 24.5096137,105.593883 24.6586578,105.559397 C24.8074658,105.524203 24.9498962,105.470585 25.0861854,105.397834 C25.2231832,105.324848 25.3481347,105.229658 25.462457,105.112029 C25.5760706,104.995108 25.668426,104.850788 25.7378698,104.679541 L27.0126578,105.43043 C26.9108543,105.677971 26.7603929,105.899766 26.5603289,106.096759 C26.3609735,106.293044 26.1309117,106.457914 25.8708521,106.590896 C25.6115011,106.723642 25.3351435,106.825446 25.0436689,106.895126 C24.7521943,106.964806 24.4663885,107 24.1876689,107 C23.6994371,107 23.2508874,106.89985 22.8417837,106.700494 C22.4333885,106.50043 22.0809735,106.236119 21.7864283,105.906143 C21.491883,105.576404 21.2637108,105.202494 21.1019117,104.784415 C20.9401126,104.365627 20.8593311,103.941406 20.8593311,103.509863" id="Fill-20" fill="#2D2153"></path>
                    <path d="M31.2539205,107 C30.7526976,107 30.2963532,106.901503 29.8839426,106.705219 C29.4724768,106.508225 29.1200618,106.250291 28.8285872,105.930236 C28.5373488,105.609709 28.3105938,105.24383 28.1487947,104.831419 C27.9869956,104.419245 27.9062141,103.994788 27.9062141,103.556868 C27.9062141,103.113278 27.9903024,102.685514 28.158479,102.27334 C28.3266556,101.861874 28.5612053,101.498358 28.862128,101.184444 C29.163287,100.87053 29.5197174,100.619918 29.932128,100.433318 C30.3443024,100.246009 30.7945055,100.153181 31.2829735,100.153181 C31.7832517,100.153181 32.239596,100.250733 32.6520066,100.447726 C33.0637086,100.644011 33.4158874,100.904071 33.707362,101.227433 C33.9988366,101.550322 34.2239382,101.918563 34.3824305,102.330029 C34.5409227,102.742675 34.6200508,103.161227 34.6200508,103.585684 C34.6200508,104.029274 34.5359625,104.45751 34.3687307,104.869921 C34.2005541,105.281623 33.9676578,105.645139 33.6698057,105.958108 C33.3710088,106.272022 33.0162318,106.524287 32.6040574,106.714903 C32.1923554,106.904574 31.7423885,107 31.2539205,107 M29.4949161,103.576 C29.4949161,103.836296 29.5324724,104.088561 29.6085298,104.332795 C29.6845872,104.576084 29.7974923,104.793155 29.9465364,104.98377 C30.0953444,105.17415 30.2802914,105.326501 30.5030309,105.440115 C30.7248256,105.554673 30.9777991,105.611362 31.2636049,105.611362 C31.561457,105.611362 31.8208079,105.551366 32.0435475,105.43043 C32.2653422,105.310439 32.4486358,105.1536 32.5943731,104.959678 C32.740819,104.7667 32.8497086,104.548212 32.9226954,104.303978 C32.9956821,104.059744 33.0322936,103.810786 33.0322936,103.556868 C33.0322936,103.29728 32.9947373,103.045252 32.9177351,102.801018 C32.8426225,102.557492 32.728064,102.341366 32.5759492,102.154766 C32.4238344,101.967457 32.2379426,101.818413 32.0194547,101.707397 C31.8007307,101.596854 31.548702,101.541583 31.2636049,101.541583 C30.9657528,101.541583 30.7071104,101.599925 30.4886225,101.716845 C30.2698985,101.834475 30.0858962,101.988243 29.9368521,102.17815 C29.7878079,102.368766 29.6765563,102.5856 29.6038057,102.829834 C29.530819,103.074068 29.4949161,103.323263 29.4949161,103.576" id="Fill-21" fill="#2D2153"></path>
                    <polygon id="Fill-22" fill="#2D2153" points="35.5809249 106.943075 36.8268962 106.943075 36.8268962 105.392874 35.5809249 105.392874"></polygon>
                    <path d="M41.134532,107 C40.6333091,107 40.1769647,106.901503 39.7645541,106.705219 C39.3530883,106.508225 39.0006733,106.250291 38.7091987,105.930236 C38.4177241,105.609709 38.1912053,105.24383 38.0294062,104.831419 C37.8676071,104.419245 37.7868256,103.994788 37.7868256,103.556868 C37.7868256,103.113278 37.8709139,102.685514 38.0390905,102.27334 C38.2070309,101.861874 38.4418168,101.498358 38.7429757,101.184444 C39.0438985,100.87053 39.4000927,100.619918 39.8125033,100.433318 C40.2249139,100.246009 40.6748808,100.153181 41.1626402,100.153181 C41.6638631,100.153181 42.1202075,100.250733 42.5326181,100.447726 C42.9440839,100.644011 43.2964989,100.904071 43.5879735,101.227433 C43.8794481,101.550322 44.1043135,101.918563 44.2628057,102.330029 C44.4215342,102.742675 44.5006623,103.161227 44.5006623,103.585684 C44.5006623,104.029274 44.416574,104.45751 44.2493422,104.869921 C44.0811656,105.281623 43.8480331,105.645139 43.5504172,105.958108 C43.2516203,106.272022 42.8968433,106.524287 42.4844327,106.714903 C42.0729669,106.904574 41.623,107 41.134532,107 M39.3752914,103.576 C39.3752914,103.836296 39.4130839,104.088561 39.4891413,104.332795 C39.5651987,104.576084 39.6781038,104.793155 39.8269117,104.98377 C39.9759558,105.17415 40.1609029,105.326501 40.3834062,105.440115 C40.6052009,105.554673 40.8584106,105.611362 41.1442163,105.611362 C41.4420684,105.611362 41.7014194,105.551366 41.9239227,105.43043 C42.1457174,105.310439 42.3292472,105.1536 42.4749845,104.959678 C42.6214305,104.7667 42.7303201,104.548212 42.8030706,104.303978 C42.8760574,104.059744 42.9129051,103.810786 42.9129051,103.556868 C42.9129051,103.29728 42.8753488,103.045252 42.7983466,102.801018 C42.7222892,102.557492 42.6086755,102.341366 42.4565607,102.154766 C42.3044459,101.967457 42.1185541,101.818413 41.9000662,101.707397 C41.6813422,101.596854 41.4293135,101.541583 41.1442163,101.541583 C40.8463642,101.541583 40.5877219,101.599925 40.3689978,101.716845 C40.1505099,101.834475 39.9662715,101.988243 39.8174636,102.17815 C39.6684194,102.368766 39.5571678,102.5856 39.484181,102.829834 C39.4114305,103.074068 39.3752914,103.323263 39.3752914,103.576" id="Fill-23" fill="#2D2153"></path>
                    <path d="M45.4043753,106.942839 L45.4043753,100.190501 L48.4476159,100.190501 C48.7648366,100.190501 49.0579647,100.256874 49.327,100.390565 C49.5967439,100.523547 49.8298764,100.698102 50.0259249,100.913283 C50.2229183,101.1287 50.3766865,101.37317 50.4879382,101.646221 C50.5984812,101.918327 50.6537528,102.19374 50.6537528,102.473404 C50.6537528,102.682444 50.6289514,102.883216 50.5776954,103.077139 C50.5271479,103.270826 50.4543974,103.452466 50.3589713,103.623949 C50.2637815,103.795433 50.1485143,103.948965 50.0122252,104.085018 C49.8754636,104.221071 49.7216954,104.337283 49.5502119,104.431764 L51.0340397,106.942839 L49.2747991,106.942839 L47.9818234,104.76481 L46.9640243,104.76481 L46.9640243,106.942839 L45.4043753,106.942839 Z M46.9640243,103.405225 L48.3909272,103.405225 C48.5742208,103.405225 48.732713,103.318066 48.8656954,103.143512 C48.9993863,102.968958 49.0659956,102.74551 49.0659956,102.473404 C49.0659956,102.19374 48.9899382,101.971945 48.8375872,101.807075 C48.6854724,101.642914 48.5206026,101.55977 48.3429779,101.55977 L46.9640243,101.55977 L46.9640243,103.405225 L46.9640243,103.405225 Z" id="Fill-24" fill="#2D2153"></path>
                    <path d="M56.6070155,106.276982 C56.0939823,106.752695 55.5006402,106.990552 54.8288786,106.990552 C54.3852892,106.990552 53.9665011,106.906464 53.573223,106.738523 C53.180181,106.570347 52.8367417,106.334143 52.5419603,106.029914 C52.2464702,105.725448 52.013574,105.35957 51.8427991,104.931097 C51.6715519,104.503806 51.5860464,104.032581 51.5860464,103.519547 C51.5860464,103.056826 51.6715519,102.618669 51.8427991,102.207203 C52.013574,101.794792 52.249777,101.436945 52.5506998,101.132715 C52.8518587,100.828486 53.2089978,100.586614 53.6204636,100.409698 C54.0328742,100.231837 54.4764636,100.143024 54.9521766,100.143024 C55.5797682,100.143024 56.1282318,100.275062 56.5975673,100.53772 C57.0666667,100.801086 57.4181369,101.160587 57.6529227,101.617168 L56.4926932,102.4923 C56.3403422,102.188071 56.1202009,101.951868 55.8320331,101.783691 C55.5429205,101.615514 55.2316049,101.531426 54.8952517,101.531426 C54.6349558,101.531426 54.3987528,101.584099 54.1866424,101.688501 C53.9742958,101.793139 53.7917108,101.938876 53.639596,102.126185 C53.4874812,102.312786 53.3698521,102.529857 53.2881258,102.777397 C53.2056909,103.024702 53.1641192,103.290667 53.1641192,103.576472 C53.1641192,103.867711 53.2089978,104.137691 53.2978102,104.384287 C53.3859139,104.631828 53.5099205,104.845592 53.6684128,105.026287 C53.8271413,105.207455 54.0151589,105.348468 54.2345916,105.450035 C54.4533157,105.550894 54.6958962,105.60215 54.9616247,105.60215 C55.5703201,105.60215 56.1187837,105.319651 56.6070155,104.755834 L56.6070155,104.546086 L55.2946711,104.546086 L55.2946711,103.414673 L57.9002274,103.414673 L57.9002274,106.942603 L56.6070155,106.942603 L56.6070155,106.276982" id="Fill-25" fill="#2D2153"></path>
                    <path d="M23.9089492,44.7675717 L23.9089492,46.6083024 C23.9089492,51.6006909 22.7125806,58.2467373 16.4831965,58.2467373 C10.254521,58.2467373 8.22860706,51.4445607 8.22860706,46.2336843 C8.22860706,40.8047925 9.94769316,33.9716733 16.4831965,33.9716733 C20.0118344,33.9716733 22.3131611,36.2184371 23.2955298,39.5566954 L18.845936,41.3036534 C18.6314636,40.1186225 18.2629868,38.2778918 16.5143753,38.2778918 C13.4149183,38.0905828 13.1080905,43.8938565 13.1080905,46.1087329 C13.1080905,48.5430419 13.2611501,53.9405188 16.6369647,53.9405188 C18.9685254,53.9405188 19.336766,50.7583907 19.336766,49.1354393 L16.4215475,49.1354393 L16.4215475,44.7675717 L23.9089492,44.7675717" id="Fill-26" fill="#2D2153"></path>
                    <polyline id="Fill-27" fill="#2D2153" points="29.9826755 34.3460552 29.9826755 53.5037792 34.7693311 53.5037792 34.7693311 57.8723554 25.4107285 57.8723554 25.4107285 34.3460552 29.9826755 34.3460552"></polyline>
                    <path d="M40.9968256,34.3460552 L40.9968256,49.572415 C40.9968256,51.3505519 40.782117,54.0347638 43.2676821,54.0347638 C45.5071236,54.0347638 45.5071236,52.3180397 45.5375938,50.5708455 L45.5375938,34.3460552 L50.109777,34.3460552 L50.109777,51.5066821 C50.109777,54.0033488 49.834128,58.2465011 43.2362671,58.2465011 C38.9718565,58.2465011 36.4248786,56.2182252 36.4248786,51.8191788 L36.4248786,34.3460552 L40.9968256,34.3460552" id="Fill-28" fill="#2D2153"></path>
                    <polyline id="Fill-29" fill="#2D2153" points="63.5478433 34.3460552 63.5478433 38.7146313 59.9270861 38.7146313 59.9270861 57.8723554 55.3551391 57.8723554 55.3551391 38.7146313 51.7646159 38.7146313 51.7646159 34.3460552 63.5478433 34.3460552"></polyline>
                    <polyline id="Fill-30" fill="#2D2153" points="74.531287 34.3460552 74.531287 38.7146313 69.8974547 38.7146313 69.8974547 43.8312627 73.9788079 43.8312627 73.9788079 48.1998389 69.8974547 48.1998389 69.8974547 53.5037792 74.592936 53.5037792 74.592936 57.8723554 65.3257439 57.8723554 65.3257439 34.3460552 74.531287 34.3460552"></polyline>
                    <path d="M80.8204305,34.3460552 L86.5280419,48.5435143 L86.5894547,48.4809205 C86.3133333,47.3575386 86.2205055,46.1403841 86.2205055,44.9234658 L86.2205055,34.3460552 L90.7931611,34.3460552 L90.7931611,57.8723554 L86.4661567,57.8723554 L80.8204305,43.6758411 L80.7587815,43.7374901 L80.9741987,46.1092053 L81.0046689,47.076457 L81.0046689,57.8723554 L76.4324857,57.8723554 L76.4324857,34.3460552 L80.8204305,34.3460552" id="Fill-31" fill="#2D2153"></path>
                    <polyline id="Fill-32" fill="#2D2153" points="18.2936932 63.2051126 18.2936932 67.5739249 13.6296269 67.5739249 13.6296269 72.5967837 17.8333333 72.5967837 17.8333333 76.9653598 13.6296269 76.9653598 13.6296269 86.7314128 9.05744371 86.7314128 9.05744371 63.2051126 18.2936932 63.2051126"></polyline>
                    <path d="M20.2255982,86.7311766 L20.2255982,63.2051126 L24.8287241,63.2051126 C27.7434702,63.2051126 32.9600155,63.5173731 32.9600155,69.9444592 C32.9600155,72.5348985 31.9471766,74.7495386 29.6763201,76.0290508 L33.6957881,86.7311766 L28.8786623,86.7311766 L24.8591943,75.8731567 L24.7975453,75.8731567 L24.7975453,86.7311766 L20.2255982,86.7311766 Z M24.7975453,73.3148411 L25.5949669,73.3457837 C27.681585,73.3457837 28.5104216,71.9101413 28.5104216,69.9758742 C28.5104216,68.2910375 27.713,66.917989 25.4116733,67.0427042 L24.7975453,67.0427042 L24.7975453,73.3148411 L24.7975453,73.3148411 Z" id="Fill-33" fill="#2D2153"></path>
                    <polyline id="Fill-34" fill="#2D2153" points="44.7715872 63.2051126 44.7715872 67.5739249 40.1379912 67.5739249 40.1379912 72.6903201 44.2191082 72.6903201 44.2191082 77.0588962 40.1379912 77.0588962 40.1379912 82.3628366 44.8332362 82.3628366 44.8332362 86.7314128 35.5660442 86.7314128 35.5660442 63.2051126 44.7715872 63.2051126"></polyline>
                    <polyline id="Fill-35" fill="#2D2153" points="56.4919845 63.2051126 56.4919845 67.5739249 51.8581523 67.5739249 51.8581523 72.6903201 55.9395055 72.6903201 55.9395055 77.0588962 51.8581523 77.0588962 51.8581523 82.3628366 56.5536336 82.3628366 56.5536336 86.7314128 47.2862053 86.7314128 47.2862053 63.2051126 56.4919845 63.2051126"></polyline>
                    <polyline id="Fill-36" fill="#2D2153" points="152.668923 83.0409757 152.668923 83.4855099 151.41185 83.4855099 151.41185 86.7715673 150.901887 86.7715673 150.901887 83.4855099 149.644815 83.4855099 149.644815 83.0409757 152.668923 83.0409757"></polyline>
                    <path d="M153.121015,83.0409757 L153.844978,83.0409757 L154.917812,86.1952318 L155.982852,83.0409757 L156.701854,83.0409757 L156.701854,86.7715673 L156.219055,86.7715673 L156.219055,84.5696821 C156.219055,84.4936247 156.220472,84.3679647 156.224488,84.191521 C156.227795,84.0155497 156.229448,83.8268234 156.229448,83.6248698 L155.164408,86.7715673 L154.663185,86.7715673 L153.588698,83.6248698 L153.588698,83.7391921 C153.588698,83.8306026 153.59106,83.9699625 153.595784,84.1572715 C153.600744,84.3445806 153.603815,84.4815784 153.603815,84.5696821 L153.603815,86.7715673 L153.121015,86.7715673 L153.121015,83.0409757" id="Fill-37" fill="#2D2153"></path>
                </g>
            </g>
        </g>
    </g>
</svg>