<?xml version="1.0" standalone="no"?><svg xmlns:xlink="http://www.w3.org/1999/xlink" xmlns="http://www.w3.org/2000/svg" viewBox="0 0 1000 1600" preserveAspectRatio="xMaxYMax slice"><g transform="scale(2.099737532808399)"><rect x="0" y="0" width="476.25" height="762" fill="#060950"/><polygon points="190.5,0 190.5,95.25 95.25,95.25" fill="#FFDA01"/><polygon points="95.25,95.25 190.5,95.25 95.25,190.5" fill="#0CE8C7"/><polygon points="95.25,190.5 190.5,190.5 95.25,285.75" fill="#d0b0ff"/><polygon points="381,190.5 476.25,285.75 381,285.75" fill="#0CE8C7"/><polygon points="0,285.75 95.25,285.75 95.25,381" fill="#0CE8C7"/><polygon points="95.25,381 190.5,476.25 95.25,476.25" fill="#d0b0ff"/><polygon points="381,381 381,476.25 285.75,476.25" fill="#0CE8C7"/><polygon points="190.5,571.5 285.75,666.75 190.5,666.75" fill="#0CE8C7"/><polygon points="0,666.75 95.25,762 0,762" fill="#FFDA01"/><polygon points="95.25,666.75 190.5,666.75 190.5,762" fill="#ff7a6c"/><polygon points="285.75,666.75 381,762 285.75,762" fill="#d0b0ff"/></g></svg>