<?xml version="1.0" standalone="no"?><svg xmlns:xlink="http://www.w3.org/1999/xlink" xmlns="http://www.w3.org/2000/svg" viewBox="0 0 1000 1000.0000000000001" preserveAspectRatio="xMaxYMax slice"><g transform="scale(1.221001221001221)"><rect x="0" y="0" width="819" height="819" fill="#060950"/><circle cx="245.70000000000002" cy="81.9" r="81.9" fill="#492858"/><rect x="327.6" y="0" width="163.8" height="163.8" fill="#060950"/><circle cx="450.45" cy="40.95" r="40.95" fill="#38337c"/><g transform="translate(409.5,81.9) scale(4.095000000000001) rotate(0)"><path fill-rule="evenodd" clip-rule="evenodd" d="M10 20C15.5228 20 20 15.5228 20 10C20 4.47715 15.5228 0 10 0C4.47715 0 0 4.47715 0 10C0 15.5228 4.47715 20 10 20ZM10 17C13.866 17 17 13.866 17 10C17 6.13401 13.866 3 10 3C6.13401 3 3 6.13401 3 10C3 13.866 6.13401 17 10 17Z" fill="#090b52"/></g><rect x="491.40000000000003" y="0" width="163.8" height="163.8" fill="#060950"/><g transform="translate(491.4,0) scale(4.095000000000001) rotate(0)"><path fill-rule="evenodd" clip-rule="evenodd" d="M10 20C15.5228 20 20 15.5228 20 10C20 4.47715 15.5228 0 10 0C4.47715 0 0 4.47715 0 10C0 15.5228 4.47715 20 10 20ZM10 17C13.866 17 17 13.866 17 10C17 6.13401 13.866 3 10 3C6.13401 3 3 6.13401 3 10C3 13.866 6.13401 17 10 17Z" fill="#988422"/></g><circle cx="614.25" cy="40.95" r="40.95" fill="#098894"/><circle cx="532.35" cy="122.85000000000001" r="40.95" fill="#402457"/><rect x="655.2" y="0" width="163.8" height="163.8" fill="#060950"/><circle cx="696.1500000000001" cy="40.95" r="40.95" fill="#0d0c51"/><g transform="translate(737.1,0) scale(4.095000000000001) rotate(0)"><path fill-rule="evenodd" clip-rule="evenodd" d="M10 20C15.5228 20 20 15.5228 20 10C20 4.47715 15.5228 0 10 0C4.47715 0 0 4.47715 0 10C0 15.5228 4.47715 20 10 20ZM10 17C13.866 17 17 13.866 17 10C17 6.13401 13.866 3 10 3C6.13401 3 3 6.13401 3 10C3 13.866 6.13401 17 10 17Z" fill="#837228"/></g><g transform="translate(655.2,81.9) scale(4.095000000000001) rotate(0)"><path fill-rule="evenodd" clip-rule="evenodd" d="M10 20C15.5228 20 20 15.5228 20 10C20 4.47715 15.5228 0 10 0C4.47715 0 0 4.47715 0 10C0 15.5228 4.47715 20 10 20ZM10 17C13.866 17 17 13.866 17 10C17 6.13401 13.866 3 10 3C6.13401 3 3 6.13401 3 10C3 13.866 6.13401 17 10 17Z" fill="#413a3d"/></g><circle cx="778.0500000000001" cy="122.85000000000001" r="40.95" fill="#09778b"/><g transform="translate(0,163.8) scale(8.190000000000001) rotate(0)"><path fill-rule="evenodd" clip-rule="evenodd" d="M10 20C15.5228 20 20 15.5228 20 10C20 4.47715 15.5228 0 10 0C4.47715 0 0 4.47715 0 10C0 15.5228 4.47715 20 10 20ZM10 17C13.866 17 17 13.866 17 10C17 6.13401 13.866 3 10 3C6.13401 3 3 6.13401 3 10C3 13.866 6.13401 17 10 17Z" fill="#9e8820"/></g><g transform="translate(491.4,163.8) scale(8.190000000000001) rotate(0)"><path fill-rule="evenodd" clip-rule="evenodd" d="M10 20C15.5228 20 20 15.5228 20 10C20 4.47715 15.5228 0 10 0C4.47715 0 0 4.47715 0 10C0 15.5228 4.47715 20 10 20ZM10 17C13.866 17 17 13.866 17 10C17 6.13401 13.866 3 10 3C6.13401 3 3 6.13401 3 10C3 13.866 6.13401 17 10 17Z" fill="#085e7d"/></g><g transform="translate(655.2,163.8) scale(8.190000000000001) rotate(0)"><path fill-rule="evenodd" clip-rule="evenodd" d="M10 20C15.5228 20 20 15.5228 20 10C20 4.47715 15.5228 0 10 0C4.47715 0 0 4.47715 0 10C0 15.5228 4.47715 20 10 20ZM10 17C13.866 17 17 13.866 17 10C17 6.13401 13.866 3 10 3C6.13401 3 3 6.13401 3 10C3 13.866 6.13401 17 10 17Z" fill="#38327b"/></g><circle cx="245.70000000000002" cy="409.5" r="81.9" fill="#847328"/><rect x="327.6" y="327.6" width="163.8" height="163.8" fill="#060950"/><circle cx="368.55" cy="368.55" r="40.95" fill="#c9ad12"/><g transform="translate(409.5,327.6) scale(4.095000000000001) rotate(0)"><path fill-rule="evenodd" clip-rule="evenodd" d="M10 20C15.5228 20 20 15.5228 20 10C20 4.47715 15.5228 0 10 0C4.47715 0 0 4.47715 0 10C0 15.5228 4.47715 20 10 20ZM10 17C13.866 17 17 13.866 17 10C17 6.13401 13.866 3 10 3C6.13401 3 3 6.13401 3 10C3 13.866 6.13401 17 10 17Z" fill="#6a365b"/></g><circle cx="737.1" cy="409.5" r="81.9" fill="#9f891f"/><circle cx="81.9" cy="573.3" r="81.9" fill="#096882"/><circle cx="245.70000000000002" cy="573.3" r="81.9" fill="#312d42"/><rect x="327.6" y="491.40000000000003" width="163.8" height="163.8" fill="#060950"/><g transform="translate(409.5,491.4) scale(4.095000000000001) rotate(0)"><path fill-rule="evenodd" clip-rule="evenodd" d="M10 20C15.5228 20 20 15.5228 20 10C20 4.47715 15.5228 0 10 0C4.47715 0 0 4.47715 0 10C0 15.5228 4.47715 20 10 20ZM10 17C13.866 17 17 13.866 17 10C17 6.13401 13.866 3 10 3C6.13401 3 3 6.13401 3 10C3 13.866 6.13401 17 10 17Z" fill="#d2b40f"/></g><g transform="translate(327.6,573.3) scale(4.095000000000001) rotate(0)"><path fill-rule="evenodd" clip-rule="evenodd" d="M10 20C15.5228 20 20 15.5228 20 10C20 4.47715 15.5228 0 10 0C4.47715 0 0 4.47715 0 10C0 15.5228 4.47715 20 10 20ZM10 17C13.866 17 17 13.866 17 10C17 6.13401 13.866 3 10 3C6.13401 3 3 6.13401 3 10C3 13.866 6.13401 17 10 17Z" fill="#594f36"/></g><circle cx="573.3" cy="573.3" r="81.9" fill="#1e1d49"/><rect x="655.2" y="491.40000000000003" width="163.8" height="163.8" fill="#060950"/><g transform="translate(737.1,491.4) scale(4.095000000000001) rotate(0)"><path fill-rule="evenodd" clip-rule="evenodd" d="M10 20C15.5228 20 20 15.5228 20 10C20 4.47715 15.5228 0 10 0C4.47715 0 0 4.47715 0 10C0 15.5228 4.47715 20 10 20ZM10 17C13.866 17 17 13.866 17 10C17 6.13401 13.866 3 10 3C6.13401 3 3 6.13401 3 10C3 13.866 6.13401 17 10 17Z" fill="#09798c"/></g><g transform="translate(737.1,573.3) scale(4.095000000000001) rotate(0)"><path fill-rule="evenodd" clip-rule="evenodd" d="M10 20C15.5228 20 20 15.5228 20 10C20 4.47715 15.5228 0 10 0C4.47715 0 0 4.47715 0 10C0 15.5228 4.47715 20 10 20ZM10 17C13.866 17 17 13.866 17 10C17 6.13401 13.866 3 10 3C6.13401 3 3 6.13401 3 10C3 13.866 6.13401 17 10 17Z" fill="#da6968"/></g><rect x="655.2" y="655.2" width="163.8" height="163.8" fill="#060950"/><circle cx="696.1500000000001" cy="696.1500000000001" r="40.95" fill="#0bb4ab"/><circle cx="778.0500000000001" cy="778.0500000000001" r="40.95" fill="#bf5d65"/></g></svg>