<?xml version="1.0" standalone="no"?><svg xmlns:xlink="http://www.w3.org/1999/xlink" xmlns="http://www.w3.org/2000/svg" viewBox="0 0 1000 625.0051263543828" preserveAspectRatio="xMaxYMax slice"><g transform="scale(0.8202167012524708)"><rect x="0" y="0" width="1219.2" height="762" fill="#060950"/><polygon points="152.4,0 304.8,0 304.8,152.4" fill="#08587a"/><polygon points="457.2,0 609.6,152.4 457.2,152.4" fill="#fc796c"/><polygon points="762,0 762,152.4 609.6,152.4" fill="#974b60"/><polygon points="152.4,152.4 304.8,304.8 152.4,304.8" fill="#433c85"/><polygon points="457.20000000000005,152.4 457.20000000000005,304.8 304.8,304.8" fill="#81415e"/><polygon points="609.6,152.4 762,152.4 609.6,304.8" fill="#070950"/><polygon points="914.4,152.4 1066.8,152.4 914.4,304.8" fill="#0cdbc0"/><polygon points="0,304.8 152.4,304.8 0,457.20000000000005" fill="#af5663"/><polygon points="457.20000000000005,304.8 457.20000000000005,457.20000000000005 304.8,457.20000000000005" fill="#0aa4a3"/><polygon points="609.6,304.8 762,457.20000000000005 609.6,457.20000000000005" fill="#098592"/><polygon points="914.4,304.8 1066.8,457.20000000000005 914.4,457.20000000000005" fill="#0bcfba"/><polygon points="1066.8,304.8 1219.2,304.8 1219.2,457.20000000000005" fill="#7766b2"/><polygon points="0,457.2 152.4,457.2 152.4,609.6" fill="#061355"/><polygon points="304.8,457.2 457.20000000000005,457.2 304.8,609.6" fill="#a28ad7"/><polygon points="609.6,457.2 762,457.2 762,609.6" fill="#15155d"/><polygon points="762,457.2 914.4,457.2 762,609.6" fill="#645832"/><polygon points="914.4,457.2 1066.8,457.2 1066.8,609.6" fill="#70395c"/><polygon points="1066.8,457.2 1219.2,457.2 1066.8,609.6" fill="#ad93e1"/><polygon points="152.4,609.6 304.8,609.6 152.4,762" fill="#fad602"/><polygon points="304.8,609.6 457.20000000000005,609.6 304.8,762" fill="#d26667"/><polygon points="457.2,609.6 609.6,609.6 457.2,762" fill="#e76f69"/><polygon points="609.6,609.6 762,762 609.6,762" fill="#d1b410"/><polygon points="762,609.6 914.4,762 762,762" fill="#dfbf0b"/><polygon points="914.4,609.6 1066.8,609.6 1066.8,762" fill="#07205c"/></g></svg>