<?xml version="1.0" standalone="no"?><svg xmlns:xlink="http://www.w3.org/1999/xlink" xmlns="http://www.w3.org/2000/svg" viewBox="0 0 1000 2000" preserveAspectRatio="xMaxYMax slice"><g transform="scale(2.6246719160104988)"><rect x="0" y="0" width="381" height="762" fill="#060950"/><rect x="127" y="0" width="127" height="127" fill="#060950"/><circle cx="158.75" cy="31.75" r="31.75" fill="#FF7A6C"/><circle cx="222.25" cy="31.75" r="31.75" fill="#FFDA01"/><circle cx="158.75" cy="95.25" r="31.75" fill="#0CE8C7"/><circle cx="317.5" cy="63.5" r="63.5" fill="#0CE8C7"/><circle cx="63.5" cy="190.5" r="63.5" fill="#FF7A6C"/><rect x="127" y="127" width="127" height="127" fill="#060950"/><circle cx="158.75" cy="158.75" r="31.75" fill="#FFDA01"/><circle cx="222.25" cy="158.75" r="31.75" fill="#FFDA01"/><circle cx="158.75" cy="222.25" r="31.75" fill="#FF7A6C"/><circle cx="222.25" cy="222.25" r="31.75" fill="#D0B0FF"/><circle cx="63.5" cy="317.5" r="63.5" fill="#FFDA01"/><circle cx="190.5" cy="317.5" r="63.5" fill="#D0B0FF"/><rect x="254" y="254" width="127" height="127" fill="#060950"/><circle cx="285.75" cy="285.75" r="31.75" fill="#FFDA01"/><circle cx="349.25" cy="285.75" r="31.75" fill="#D0B0FF"/><circle cx="285.75" cy="349.25" r="31.75" fill="#0CE8C7"/><circle cx="349.25" cy="349.25" r="31.75" fill="#FFDA01"/><circle cx="63.5" cy="444.5" r="63.5" fill="#FF7A6C"/><rect x="127" y="381" width="127" height="127" fill="#060950"/><circle cx="158.75" cy="412.75" r="31.75" fill="#0CE8C7"/><circle cx="222.25" cy="412.75" r="31.75" fill="#D0B0FF"/><circle cx="158.75" cy="476.25" r="31.75" fill="#0CE8C7"/><rect x="0" y="508" width="127" height="127" fill="#060950"/><circle cx="31.75" cy="539.75" r="31.75" fill="#D0B0FF"/><circle cx="95.25" cy="539.75" r="31.75" fill="#FF7A6C"/><circle cx="31.75" cy="603.25" r="31.75" fill="#FF7A6C"/><rect x="127" y="508" width="127" height="127" fill="#060950"/><circle cx="158.75" cy="539.75" r="31.75" fill="#FFDA01"/><circle cx="222.25" cy="539.75" r="31.75" fill="#0CE8C7"/><circle cx="158.75" cy="603.25" r="31.75" fill="#0CE8C7"/><circle cx="222.25" cy="603.25" r="31.75" fill="#D0B0FF"/><rect x="0" y="635" width="127" height="127" fill="#060950"/><circle cx="95.25" cy="666.75" r="31.75" fill="#0CE8C7"/><circle cx="31.75" cy="730.25" r="31.75" fill="#D0B0FF"/><circle cx="95.25" cy="730.25" r="31.75" fill="#FFDA01"/><circle cx="190.5" cy="698.5" r="63.5" fill="#FFDA01"/></g></svg>