<?xml version="1.0" standalone="no"?><svg xmlns:xlink="http://www.w3.org/1999/xlink" xmlns="http://www.w3.org/2000/svg" viewBox="0 0 1000 3000" preserveAspectRatio="xMaxYMax slice"><g transform="scale(5.05050505050505)"><rect x="0" y="0" width="198" height="594" fill="#060950"/><rect x="99" y="0" width="99" height="99" fill="#060950"/><circle cx="123.75" cy="24.75" r="24.75" fill="#FF7A6C"/><circle cx="173.25" cy="24.75" r="24.75" fill="#D0B0FF"/><circle cx="173.25" cy="74.25" r="24.75" fill="#0CE8C7"/><circle cx="49.5" cy="148.5" r="49.5" fill="#FF7A6C"/><rect x="99" y="198" width="99" height="99" fill="#060950"/><circle cx="123.75" cy="222.75" r="24.75" fill="#D0B0FF"/><circle cx="173.25" cy="222.75" r="24.75" fill="#D0B0FF"/><circle cx="173.25" cy="272.25" r="24.75" fill="#FFDA01"/><circle cx="148.5" cy="346.5" r="49.5" fill="#0CE8C7"/><rect x="99" y="396" width="99" height="99" fill="#060950"/><circle cx="123.75" cy="420.75" r="24.75" fill="#0CE8C7"/><circle cx="123.75" cy="470.25" r="24.75" fill="#FF7A6C"/><rect x="0" y="495" width="99" height="99" fill="#060950"/><circle cx="24.75" cy="519.75" r="24.75" fill="#FFDA01"/><circle cx="74.25" cy="519.75" r="24.75" fill="#FF7A6C"/><circle cx="24.75" cy="569.25" r="24.75" fill="#FF7A6C"/><circle cx="148.5" cy="544.5" r="49.5" fill="#0CE8C7"/></g></svg>