<?xml version="1.0" standalone="no"?><svg xmlns:xlink="http://www.w3.org/1999/xlink" xmlns="http://www.w3.org/2000/svg" viewBox="0 0 1000 1000.0000000000001" preserveAspectRatio="xMaxYMax slice"><g transform="scale(1.221001221001221)"><rect x="0" y="0" width="819" height="819" fill="#ffffff"/><polygon points="0,0 409.5,409.5 0,409.5" fill="#FF3565"/><rect x="409.5" y="0" width="409.5" height="409.5" fill="#ffffff"/><polygon points="409.5,0 614.25,204.75 409.5,204.75" fill="#183FE1"/><polygon points="819,0 819,204.75 614.25,204.75" fill="#FF3565"/><polygon points="409.5,204.75 614.25,204.75 614.25,409.5" fill="#20dfdf"/><polygon points="614.25,204.75 819,409.5 614.25,409.5" fill="#FF3565"/><rect x="0" y="409.5" width="409.5" height="409.5" fill="#ffffff"/><polygon points="0,409.5 204.75,614.25 0,614.25" fill="#20dfdf"/><polygon points="204.75,409.5 409.5,614.25 204.75,614.25" fill="#20dfdf"/><polygon points="204.75,614.25 204.75,819 0,819" fill="#FF3565"/><polygon points="204.75,614.25 409.5,614.25 204.75,819" fill="#183FE1"/><rect x="409.5" y="409.5" width="409.5" height="409.5" fill="#ffffff"/><polygon points="614.25,409.5 614.25,614.25 409.5,614.25" fill="#183FE1"/><polygon points="614.25,409.5 819,614.25 614.25,614.25" fill="#183FE1"/><polygon points="614.25,614.25 614.25,819 409.5,819" fill="#20dfdf"/><polygon points="614.25,614.25 819,614.25 614.25,819" fill="#183FE1"/></g></svg>