<?xml version="1.0" standalone="no"?><svg xmlns:xlink="http://www.w3.org/1999/xlink" xmlns="http://www.w3.org/2000/svg" viewBox="0 0 1000 625.0051263543828" preserveAspectRatio="xMaxYMax slice"><g transform="scale(0.8202167012524708)"><rect x="0" y="0" width="1219.2" height="762" fill="#060950"/><polygon points="152.4,0 152.4,152.4 0,152.4" fill="#d0b0ff"/><polygon points="304.8,0 457.20000000000005,152.4 304.8,152.4" fill="#d0b0ff"/><polygon points="457.2,0 609.6,0 609.6,152.4" fill="#ff7a6c"/><polygon points="609.6,0 762,152.4 609.6,152.4" fill="#ff7a6c"/><polygon points="1219.2,0 1219.2,152.4 1066.8,152.4" fill="#0CE8C7"/><polygon points="0,152.4 152.4,152.4 152.4,304.8" fill="#FFDA01"/><polygon points="152.4,152.4 304.8,152.4 304.8,304.8" fill="#0CE8C7"/><polygon points="304.8,152.4 457.20000000000005,304.8 304.8,304.8" fill="#ff7a6c"/><polygon points="609.6,152.4 762,152.4 762,304.8" fill="#FFDA01"/><polygon points="1066.8,152.4 1219.2,152.4 1219.2,304.8" fill="#d0b0ff"/><polygon points="0,304.8 152.4,304.8 152.4,457.20000000000005" fill="#FFDA01"/><polygon points="304.8,304.8 457.20000000000005,304.8 304.8,457.20000000000005" fill="#0CE8C7"/><polygon points="457.2,304.8 609.6,457.20000000000005 457.2,457.20000000000005" fill="#FFDA01"/><polygon points="762,304.8 762,457.20000000000005 609.6,457.20000000000005" fill="#FFDA01"/><polygon points="762,304.8 914.4,304.8 914.4,457.20000000000005" fill="#ff7a6c"/><polygon points="914.4,304.8 1066.8,304.8 1066.8,457.20000000000005" fill="#0CE8C7"/><polygon points="152.4,457.2 152.4,609.6 0,609.6" fill="#0CE8C7"/><polygon points="152.4,457.2 304.8,457.2 304.8,609.6" fill="#FFDA01"/><polygon points="1066.8,457.2 1219.2,457.2 1066.8,609.6" fill="#FFDA01"/><polygon points="914.4,609.6 1066.8,762 914.4,762" fill="#ff7a6c"/><polygon points="1066.8,609.6 1219.2,762 1066.8,762" fill="#0CE8C7"/></g></svg>