<?xml version="1.0" standalone="no"?><svg xmlns:xlink="http://www.w3.org/1999/xlink" xmlns="http://www.w3.org/2000/svg" viewBox="0 0 1000 3000" preserveAspectRatio="xMaxYMax slice"><g transform="scale(3.663003663003663)"><rect x="0" y="0" width="273" height="819" fill="#060950"/><rect x="0" y="0" width="136.5" height="136.5" fill="#060950"/><circle cx="34.125" cy="34.125" r="34.125" fill="#0CE8C7"/><circle cx="102.375" cy="34.125" r="34.125" fill="#FFDA01"/><circle cx="204.75" cy="68.25" r="68.25" fill="#0CE8C7"/><rect x="0" y="136.5" width="136.5" height="136.5" fill="#060950"/><circle cx="102.375" cy="170.625" r="34.125" fill="#D0B0FF"/><circle cx="34.125" cy="238.875" r="34.125" fill="#D0B0FF"/><circle cx="102.375" cy="238.875" r="34.125" fill="#FF7A6C"/><circle cx="204.75" cy="204.75" r="68.25" fill="#0CE8C7"/><circle cx="68.25" cy="341.25" r="68.25" fill="#0CE8C7"/><circle cx="68.25" cy="477.75" r="68.25" fill="#FF7A6C"/><circle cx="204.75" cy="477.75" r="68.25" fill="#FFDA01"/><circle cx="68.25" cy="614.25" r="68.25" fill="#D0B0FF"/><rect x="136.5" y="546" width="136.5" height="136.5" fill="#060950"/><circle cx="170.625" cy="580.125" r="34.125" fill="#D0B0FF"/><circle cx="170.625" cy="648.375" r="34.125" fill="#FFDA01"/><circle cx="238.875" cy="648.375" r="34.125" fill="#0CE8C7"/><circle cx="68.25" cy="750.75" r="68.25" fill="#FF7A6C"/></g></svg>