<?xml version="1.0" standalone="no"?><svg xmlns:xlink="http://www.w3.org/1999/xlink" xmlns="http://www.w3.org/2000/svg" viewBox="0 0 1000 3000" preserveAspectRatio="xMaxYMax slice"><g transform="scale(3.937007874015748)"><rect x="0" y="0" width="254" height="762" fill="#060950"/><rect x="0" y="0" width="127" height="127" fill="#060950"/><circle cx="31.75" cy="95.25" r="31.75" fill="#463e88"/><rect x="127" y="0" width="127" height="127" fill="#060950"/><circle cx="158.75" cy="31.75" r="31.75" fill="#685b31"/><circle cx="222.25" cy="31.75" r="31.75" fill="#6e5faa"/><rect x="127" y="127" width="127" height="127" fill="#060950"/><circle cx="158.75" cy="158.75" r="31.75" fill="#70622f"/><circle cx="222.25" cy="158.75" r="31.75" fill="#e36d69"/><circle cx="158.75" cy="222.25" r="31.75" fill="#097c8d"/><circle cx="222.25" cy="222.25" r="31.75" fill="#432557"/><rect x="0" y="254" width="127" height="127" fill="#060950"/><circle cx="31.75" cy="285.75" r="31.75" fill="#08577a"/><circle cx="31.75" cy="349.25" r="31.75" fill="#084570"/><circle cx="95.25" cy="349.25" r="31.75" fill="#098994"/><rect x="127" y="254" width="127" height="127" fill="#060950"/><circle cx="158.75" cy="285.75" r="31.75" fill="#524892"/><circle cx="222.25" cy="285.75" r="31.75" fill="#9b8621"/><circle cx="158.75" cy="349.25" r="31.75" fill="#e7c609"/><circle cx="222.25" cy="349.25" r="31.75" fill="#097489"/><circle cx="190.5" cy="444.5" r="63.5" fill="#b0981a"/></g></svg>